<svg width="78" height="29" viewBox="0 0 78 29" fill="none" xmlns="http://www.w3.org/2000/svg">
<g clip-path="url(#clip0_4_2)">
<rect x="3" y="3" width="24" height="24" rx="4" fill="url(#paint0_linear_4_2)"/>
<path d="M21.816 16.58C24.108 18.718 25.362 20.58 24.908 21.48C24.163 22.94 19.125 21.221 13.653 17.642C8.183 14.063 4.349 9.978 5.093 8.519C5.557 7.609 8.019 8.075 10.896 9.324" stroke="white" stroke-width="2" stroke-linecap="round" stroke-linejoin="round"/>
<path d="M15 22C18.866 22 22 18.866 22 15C22 11.134 18.866 8 15 8C11.134 8 8 11.134 8 15C8 18.866 11.134 22 15 22Z" stroke="white" stroke-width="2" stroke-linecap="round" stroke-linejoin="round"/>
</g>
<path d="M37.9844 19.7012C37.3711 19.998 36.5703 20.1465 35.582 20.1465C34.293 20.1465 33.2793 19.7676 32.541 19.0098C31.8027 18.252 31.4336 17.2422 31.4336 15.9805C31.4336 14.6367 31.8477 13.5469 32.6758 12.7109C33.5078 11.875 34.5859 11.457 35.9102 11.457C36.7305 11.457 37.4219 11.5605 37.9844 11.7676V13.5898C37.4219 13.2539 36.7812 13.0859 36.0625 13.0859C35.2734 13.0859 34.6367 13.334 34.1523 13.8301C33.668 14.3262 33.4258 14.998 33.4258 15.8457C33.4258 16.6582 33.6543 17.3066 34.1113 17.791C34.5684 18.2715 35.1836 18.5117 35.957 18.5117C36.6953 18.5117 37.3711 18.332 37.9844 17.9727V19.7012ZM42.127 20.1465C41.127 20.1465 40.3398 19.8672 39.7656 19.3086C39.1953 18.7461 38.9102 17.9844 38.9102 17.0234C38.9102 16.0312 39.207 15.2559 39.8008 14.6973C40.3945 14.1348 41.1973 13.8535 42.209 13.8535C43.2051 13.8535 43.9863 14.1348 44.5527 14.6973C45.1191 15.2559 45.4023 15.9961 45.4023 16.918C45.4023 17.9141 45.1094 18.7012 44.5234 19.2793C43.9414 19.8574 43.1426 20.1465 42.127 20.1465ZM42.1738 15.2715C41.7363 15.2715 41.3965 15.4219 41.1543 15.7227C40.9121 16.0234 40.791 16.4492 40.791 17C40.791 18.1523 41.2559 18.7285 42.1855 18.7285C43.0723 18.7285 43.5156 18.1367 43.5156 16.9531C43.5156 15.832 43.0684 15.2715 42.1738 15.2715ZM46.2109 19.8418V18.3418C46.5156 18.5254 46.8184 18.6621 47.1191 18.752C47.4238 18.8418 47.7109 18.8867 47.9805 18.8867C48.3086 18.8867 48.5664 18.8418 48.7539 18.752C48.9453 18.6621 49.041 18.5254 49.041 18.3418C49.041 18.2246 48.998 18.127 48.9121 18.0488C48.8262 17.9707 48.7148 17.9023 48.5781 17.8438C48.4453 17.7852 48.2988 17.7324 48.1387 17.6855C47.9785 17.6387 47.8242 17.5859 47.6758 17.5273C47.4375 17.4375 47.2266 17.3418 47.043 17.2402C46.8633 17.1348 46.7109 17.0137 46.5859 16.877C46.4648 16.7402 46.3711 16.582 46.3047 16.4023C46.2422 16.2227 46.2109 16.0098 46.2109 15.7637C46.2109 15.4277 46.2832 15.1387 46.4277 14.8965C46.5762 14.6543 46.7715 14.457 47.0137 14.3047C47.2598 14.1484 47.5391 14.0352 47.8516 13.9648C48.168 13.8906 48.4961 13.8535 48.8359 13.8535C49.1016 13.8535 49.3711 13.875 49.6445 13.918C49.918 13.957 50.1875 14.0156 50.4531 14.0938V15.5234C50.2188 15.3867 49.9668 15.2852 49.6973 15.2188C49.4316 15.1484 49.1699 15.1133 48.9121 15.1133C48.791 15.1133 48.6758 15.125 48.5664 15.1484C48.4609 15.168 48.3672 15.1992 48.2852 15.2422C48.2031 15.2812 48.1387 15.334 48.0918 15.4004C48.0449 15.4629 48.0215 15.5352 48.0215 15.6172C48.0215 15.7266 48.0566 15.8203 48.127 15.8984C48.1973 15.9766 48.2891 16.0449 48.4023 16.1035C48.5156 16.1582 48.6406 16.209 48.7773 16.2559C48.918 16.2988 49.0566 16.3438 49.1934 16.3906C49.4395 16.4766 49.6621 16.5703 49.8613 16.6719C50.0605 16.7734 50.2305 16.8926 50.3711 17.0293C50.5156 17.166 50.625 17.3262 50.6992 17.5098C50.7773 17.6934 50.8164 17.9121 50.8164 18.166C50.8164 18.5215 50.7383 18.8262 50.582 19.0801C50.4297 19.3301 50.2246 19.5352 49.9668 19.6953C49.7129 19.8516 49.418 19.9648 49.082 20.0352C48.75 20.1094 48.4043 20.1465 48.0449 20.1465C47.3848 20.1465 46.7734 20.0449 46.2109 19.8418ZM61.416 20H59.5703V16.5781C59.5703 15.707 59.25 15.2715 58.6094 15.2715C58.3047 15.2715 58.0566 15.4023 57.8652 15.6641C57.6738 15.9258 57.5781 16.252 57.5781 16.6426V20H55.7266V16.543C55.7266 15.6953 55.4121 15.2715 54.7832 15.2715C54.4668 15.2715 54.2129 15.3965 54.0215 15.6465C53.834 15.8965 53.7402 16.2363 53.7402 16.666V20H51.8887V14H53.7402V14.9375H53.7637C53.9551 14.6172 54.2227 14.3574 54.5664 14.1582C54.9141 13.9551 55.293 13.8535 55.7031 13.8535C56.5508 13.8535 57.1309 14.2266 57.4434 14.9727C57.9004 14.2266 58.5723 13.8535 59.459 13.8535C60.7637 13.8535 61.416 14.6582 61.416 16.2676V20ZM65.7402 20.1465C64.7402 20.1465 63.9531 19.8672 63.3789 19.3086C62.8086 18.7461 62.5234 17.9844 62.5234 17.0234C62.5234 16.0312 62.8203 15.2559 63.4141 14.6973C64.0078 14.1348 64.8105 13.8535 65.8223 13.8535C66.8184 13.8535 67.5996 14.1348 68.166 14.6973C68.7324 15.2559 69.0156 15.9961 69.0156 16.918C69.0156 17.9141 68.7227 18.7012 68.1367 19.2793C67.5547 19.8574 66.7559 20.1465 65.7402 20.1465ZM65.7871 15.2715C65.3496 15.2715 65.0098 15.4219 64.7676 15.7227C64.5254 16.0234 64.4043 16.4492 64.4043 17C64.4043 18.1523 64.8691 18.7285 65.7988 18.7285C66.6855 18.7285 67.1289 18.1367 67.1289 16.9531C67.1289 15.832 66.6816 15.2715 65.7871 15.2715ZM69.8242 19.8418V18.3418C70.1289 18.5254 70.4316 18.6621 70.7324 18.752C71.0371 18.8418 71.3242 18.8867 71.5938 18.8867C71.9219 18.8867 72.1797 18.8418 72.3672 18.752C72.5586 18.6621 72.6543 18.5254 72.6543 18.3418C72.6543 18.2246 72.6113 18.127 72.5254 18.0488C72.4395 17.9707 72.3281 17.9023 72.1914 17.8438C72.0586 17.7852 71.9121 17.7324 71.752 17.6855C71.5918 17.6387 71.4375 17.5859 71.2891 17.5273C71.0508 17.4375 70.8398 17.3418 70.6562 17.2402C70.4766 17.1348 70.3242 17.0137 70.1992 16.877C70.0781 16.7402 69.9844 16.582 69.918 16.4023C69.8555 16.2227 69.8242 16.0098 69.8242 15.7637C69.8242 15.4277 69.8965 15.1387 70.041 14.8965C70.1895 14.6543 70.3848 14.457 70.627 14.3047C70.873 14.1484 71.1523 14.0352 71.4648 13.9648C71.7812 13.8906 72.1094 13.8535 72.4492 13.8535C72.7148 13.8535 72.9844 13.875 73.2578 13.918C73.5312 13.957 73.8008 14.0156 74.0664 14.0938V15.5234C73.832 15.3867 73.5801 15.2852 73.3105 15.2188C73.0449 15.1484 72.7832 15.1133 72.5254 15.1133C72.4043 15.1133 72.2891 15.125 72.1797 15.1484C72.0742 15.168 71.9805 15.1992 71.8984 15.2422C71.8164 15.2812 71.752 15.334 71.7051 15.4004C71.6582 15.4629 71.6348 15.5352 71.6348 15.6172C71.6348 15.7266 71.6699 15.8203 71.7402 15.8984C71.8105 15.9766 71.9023 16.0449 72.0156 16.1035C72.1289 16.1582 72.2539 16.209 72.3906 16.2559C72.5312 16.2988 72.6699 16.3438 72.8066 16.3906C73.0527 16.4766 73.2754 16.5703 73.4746 16.6719C73.6738 16.7734 73.8438 16.8926 73.9844 17.0293C74.1289 17.166 74.2383 17.3262 74.3125 17.5098C74.3906 17.6934 74.4297 17.9121 74.4297 18.166C74.4297 18.5215 74.3516 18.8262 74.1953 19.0801C74.043 19.3301 73.8379 19.5352 73.5801 19.6953C73.3262 19.8516 73.0312 19.9648 72.6953 20.0352C72.3633 20.1094 72.0176 20.1465 71.6582 20.1465C70.998 20.1465 70.3867 20.0449 69.8242 19.8418Z" fill="url(#paint1_linear_4_2)"/>
<defs>
<linearGradient id="paint0_linear_4_2" x1="3" y1="27" x2="27" y2="3" gradientUnits="userSpaceOnUse">
<stop stop-color="#BE4BDB"/>
<stop offset="1" stop-color="#228BE6"/>
</linearGradient>
<linearGradient id="paint1_linear_4_2" x1="31" y1="17" x2="75" y2="17" gradientUnits="userSpaceOnUse">
<stop stop-color="#BE4BDB"/>
<stop offset="1" stop-color="#228BE6"/>
</linearGradient>
<clipPath id="clip0_4_2">
<rect x="3" y="3" width="24" height="24" rx="4" fill="white"/>
</clipPath>
</defs>
</svg>
