<svg width="24" height="24" viewBox="0 0 24 24" fill="none" xmlns="http://www.w3.org/2000/svg">
<g clip-path="url(#clip0_3_2)">
<rect width="24" height="24" rx="4" fill="url(#paint0_linear_3_2)"/>
<path d="M18.816 13.58C21.108 15.718 22.362 17.58 21.908 18.48C21.163 19.94 16.125 18.221 10.653 14.642C5.183 11.063 1.349 6.978 2.093 5.519C2.557 4.609 5.019 5.075 7.896 6.324" stroke="white" stroke-width="2" stroke-linecap="round" stroke-linejoin="round"/>
<path d="M12 19C15.866 19 19 15.866 19 12C19 8.13401 15.866 5 12 5C8.13401 5 5 8.13401 5 12C5 15.866 8.13401 19 12 19Z" stroke="white" stroke-width="2" stroke-linecap="round" stroke-linejoin="round"/>
</g>
<defs>
<linearGradient id="paint0_linear_3_2" x1="0" y1="24" x2="24" y2="0" gradientUnits="userSpaceOnUse">
<stop stop-color="#BE4BDB"/>
<stop offset="1" stop-color="#228BE6"/>
</linearGradient>
<clipPath id="clip0_3_2">
<rect width="24" height="24" rx="4" fill="white"/>
</clipPath>
</defs>
</svg>
